<svg width="512" height="512" viewBox="0 0 48 48" xmlns="http://www.w3.org/2000/svg">
  <defs>
    <radialGradient id="laBg" cx="50%" cy="44%" r="75%"><stop offset="0" stop-color="#160C2E"/><stop offset="1" stop-color="#05030D"/></radialGradient>
    <linearGradient id="laNeon" x1="0" y1="1" x2="1" y2="0"><stop offset="0" stop-color="#2E6BFF"/><stop offset="0.4" stop-color="#9B3DFF"/><stop offset="0.7" stop-color="#FF3DC0"/><stop offset="1" stop-color="#FF9A3D"/></linearGradient>
    <filter id="laGlow" x="-60%" y="-60%" width="220%" height="220%"><feGaussianBlur stdDeviation="1.3" result="b"/><feMerge><feMergeNode in="b"/><feMergeNode in="SourceGraphic"/></feMerge></filter>
    <filter id="laRing"><feGaussianBlur stdDeviation="0.7"/></filter>
  </defs>
  <rect width="48" height="48" rx="12" fill="url(#laBg)"/>
  <g filter="url(#laRing)" fill="none">
    <ellipse cx="24" cy="24" rx="19" ry="13" transform="rotate(20 24 24)" stroke="#5B8CFF" stroke-width="1.1" opacity=".5"/>
    <ellipse cx="24" cy="24" rx="18.5" ry="14" transform="rotate(-28 24 24)" stroke="#B05BF0" stroke-width="1" opacity=".45"/>
    <ellipse cx="24" cy="24" rx="20" ry="12.5" transform="rotate(58 24 24)" stroke="#FF5BC0" stroke-width=".9" opacity=".42"/>
    <ellipse cx="24" cy="24" rx="17.5" ry="15" transform="rotate(-62 24 24)" stroke="#FF9A3D" stroke-width=".9" opacity=".35"/>
    <ellipse cx="24" cy="24" rx="19.5" ry="13.5" transform="rotate(86 24 24)" stroke="#3DC8FF" stroke-width=".9" opacity=".4"/>
  </g>
  <g fill="#fff"><circle cx="9" cy="13" r=".45" opacity=".8"/><circle cx="40" cy="12" r=".4" opacity=".7"/><circle cx="39" cy="36" r=".45" opacity=".7"/><circle cx="10" cy="37" r=".4" opacity=".6"/></g>
  <path filter="url(#laGlow)" d="M24 11 L39 24.5 L35 24.5 L35 38 L28 38 L28 28.5 L20 28.5 L20 38 L13 38 L13 24.5 L9 24.5 Z" fill="url(#laNeon)" stroke="#fff" stroke-width="1.2" stroke-linejoin="round" stroke-linecap="round"/>
</svg>
